<svg xmlns="http://www.w3.org/2000/svg" width="40" height="40" viewBox="0 0 200 200" fill="none">
  <defs>
    <linearGradient id="g" x1="0" y1="0" x2="1" y2="1">
      <stop offset="0" stop-color="#5B8CFF"/>
      <stop offset="1" stop-color="#22C55E"/>
    </linearGradient>
  </defs>

  <!-- database cylinder -->
  <ellipse cx="100" cy="54" rx="70" ry="26" fill="url(#g)" opacity="0.95"/>
  <path d="M30 54v96c0 16 31 30 70 30s70-14 70-30V54" fill="url(#g)" opacity="0.85"/>
  <ellipse cx="100" cy="150" rx="70" ry="26" fill="url(#g)" opacity="0.95"/>

  <!-- state graph overlay -->
  <g transform="translate(28 34)" stroke="#0B1220" stroke-width="6" stroke-linecap="round" stroke-linejoin="round" opacity="0.9">
    <!-- connections -->
    <path d="M44 40 L106 18"/>
    <path d="M44 40 L106 70"/>
    <path d="M106 18 L152 46"/>
    <path d="M106 70 L152 46"/>
    <!-- arrow hints -->
    <path d="M148 44 l10 2 l-6 8" fill="none"/>
  </g>

  <!-- nodes -->
  <g transform="translate(28 34)">
    <circle cx="44" cy="40" r="12" fill="#0B1220"/>
    <circle cx="106" cy="18" r="12" fill="#0B1220"/>
    <circle cx="106" cy="70" r="12" fill="#0B1220"/>
    <circle cx="152" cy="46" r="12" fill="#0B1220"/>
  </g>

  <!-- inner highlight -->
  <ellipse cx="100" cy="54" rx="62" ry="22" fill="#FFFFFF" opacity="0.12"/>
</svg>
